<svg width="154" height="40" viewBox="0 0 154 40" fill="none" xmlns="http://www.w3.org/2000/svg">
<path fill-rule="evenodd" clip-rule="evenodd" d="M30.696 8.13274C32.225 9.4784 31.3688 12.047 31.0635 13.6979C28.0054 13.3312 24.8255 12.8417 21.8894 12.6584C26.0483 16.2051 22.8675 21.6475 22.1955 25.9284L13.5117 25.5625C14.6126 19.2631 17.3645 13.3304 16.8751 6.72568C16.5689 6.11424 15.8961 5.68615 15.7741 5.44141L30.696 8.13274Z" fill="#979797" fill-opacity="0.4"/>
<path fill-rule="evenodd" clip-rule="evenodd" d="M37.6676 15.2903C39.0133 15.5964 39.258 17.1254 39.4414 18.3483C38.708 23.6082 37.4229 28.6217 36.1386 33.6974L21.2773 33.1473L24.6407 17.6755C24.3959 16.2078 24.3959 14.4955 23.2345 13.3945L37.6676 15.2903Z" fill="#979797" fill-opacity="0.4"/>
<path fill-rule="evenodd" clip-rule="evenodd" d="M12.5939 25.9302L22.1339 26.4819L20.4216 33.9428C15.8345 33.6965 11.0641 33.9428 6.59984 33.6965C7.33324 27.7048 10.636 22.0774 9.35174 15.7174L8.25082 14.8612L15.1609 15.5947L12.5939 25.9302ZM67.6344 0.672831L71.7934 0C73.0163 2.3852 74.2392 5.07653 74.9734 7.64426L74.6681 7.889C72.711 5.44323 70.0196 2.87387 66.9616 2.01768L61.335 1.71155L60.785 2.38438V33.8798C61.2131 34.7974 62.1306 35.3474 63.0474 35.4096C63.9036 35.1649 64.8211 34.6762 65.1878 33.6956L65.0045 19.2036C64.3317 18.3474 62.1912 18.8369 62.7421 17.3078C64.8211 16.1463 67.3291 15.7174 69.5915 14.8612C69.5915 17.0017 69.4082 19.0808 69.6529 21.1598H70.0196C71.6092 17.9807 74.2392 14.3726 78.2761 14.4945C79.3763 14.6165 80.3544 15.228 81.0886 16.2069C83.3527 14.4945 86.8372 14.0059 89.6513 15.0454C93.3813 17.3087 92.2812 22.2616 93.5647 25.9311C93.7488 21.8335 95.584 18.1648 99.0693 15.7183C101.76 14.3726 105.673 14.0673 108.303 15.963C108.855 16.3911 109.16 17.1253 109.772 17.0639L109.955 5.44487C110.016 3.05967 107.08 4.77203 106.714 3.05967C108.732 2.20348 110.933 1.47008 113.074 0.61308L113.502 0.00163616L113.87 0.61308C113.87 7.58533 113.747 14.4954 113.931 21.4054C114.541 19.0824 116.376 16.8806 118.518 15.7183C122.615 13.7611 127.875 14.434 131.178 17.5534C133.135 16.1472 135.765 15.9016 137.966 14.8621L138.148 15.1068C138.211 17.1253 138.088 19.2044 138.333 21.1607C140.29 18.1648 143.164 13.8225 147.506 14.6173C148.484 14.8621 149.158 15.5955 149.707 16.4525C149.952 17.0639 149.28 17.0025 149.157 17.492C148.484 18.7763 149.157 21.4054 147.261 21.4676C146.895 20.1211 146.65 18.2868 144.999 17.6754C143.652 17.4306 142.369 18.1034 141.391 19.021C137.783 22.8747 137.966 28.2557 138.333 33.455C138.333 35.1674 140.412 35.1052 140.841 36.4508C137.479 36.635 134.111 36.635 130.75 36.4508C130.688 35.1043 132.523 35.5938 133.317 34.5551C133.807 33.9445 133.807 33.1481 133.807 32.2927C131.239 35.2279 127.447 38.4685 122.861 37.1237C118.885 36.7561 115.216 33.392 113.932 29.5391C113.993 31.619 113.075 34.4937 115.645 35.4113C115.95 35.5938 116.562 35.5938 116.378 36.2061C116.562 36.5114 116.255 36.6956 116.073 36.9395C113.932 36.8789 112.159 37.429 110.017 37.3676L109.774 34.9824C107.571 37.4281 103.902 37.7965 100.783 37.0001C99.0709 36.7553 97.3586 34.3701 95.7682 36.45C94.4847 36.7553 93.383 36.2658 92.2829 35.9C91.6706 35.4105 90.753 34.7982 90.5705 33.9428C88.3064 36.5106 84.8825 38.0404 81.335 37.1228C78.7673 36.5106 76.1373 34.1254 75.7706 31.4349C75.7092 29.1102 76.3207 27.2767 77.6655 25.6249C79.8674 23.1792 83.4149 22.9344 86.5949 23.6678C87.3283 23.6073 88.0019 24.9513 88.6142 24.2179C88.552 21.8327 88.552 19.0808 86.3501 17.9185C84.4544 17.4298 82.0078 17.4298 80.4796 18.5913C79.8068 19.4475 80.3569 21.5879 78.9498 21.466C78.3392 20.1195 78.0944 17.9799 76.3207 17.5518C73.9969 17.2456 72.4065 19.3861 71.3669 20.9773C68.8598 24.402 69.6546 29.233 69.6546 33.4534C69.8387 34.9816 71.795 35.1657 72.4065 36.2658C65.6184 36.7553 58.5847 36.45 51.6747 36.5106C51.2466 34.9824 53.6924 35.593 54.488 34.5535L54.9775 33.8806L54.9161 2.0185C53.2037 1.2851 51.0633 1.95792 49.2895 1.95792C45.7428 2.38602 43.2962 5.44405 40.9716 7.88982C40.9102 7.70647 40.4821 7.70647 40.2988 7.46173L44.0296 0.000818081C51.3055 1.52902 59.806 0.672831 67.6344 0.672831ZM108.303 18.1026L109.71 20.3045C109.16 25.0749 111.667 31.6182 107.57 34.7982C105.186 35.2263 102.31 35.1035 100.782 32.8411C97.6017 28.8655 97.6017 21.8949 100.232 17.6745C101.026 16.635 102.189 16.3289 103.412 15.9622C105.368 15.9008 107.142 16.5736 108.303 18.1026ZM126.344 17.0631C125.061 16.1463 123.593 15.7788 121.941 15.9622C119.984 16.3289 118.701 18.4088 118.273 20.1211C118.333 21.4676 117.416 23.2405 118.578 24.0345L128.793 22.5669C128.608 20.4886 128.058 18.5921 126.344 17.0631ZM133.623 20.5492C133.989 19.3869 133.195 18.9588 132.276 18.7755C133.133 19.8158 133.744 20.794 133.623 22.0774V20.5492ZM133.623 31.2507V31.4349H133.805V23.7898H133.623L118.333 26.175V26.6645C118.455 30.1514 120.534 33.6973 123.958 34.799C126.099 35.3491 128.363 34.9832 130.259 34.249C131.543 33.4534 132.338 31.4954 133.623 31.2507ZM88.1231 25.5644C87.0213 25.0749 85.9826 24.402 84.6361 24.7074C83.1685 24.7679 82.0062 25.6249 81.1508 26.8478C80.2333 28.9883 79.8044 32.1077 81.5773 33.9428C82.679 34.9824 83.8413 35.7764 85.4923 35.4105C87.0811 35.471 88.4276 34.6771 89.4057 33.2094C90.2619 30.7612 89.9566 27.5206 88.1231 25.5644ZM96.0104 34.064L94.4217 31.6788C94.9103 32.413 94.1147 34.5535 96.0104 34.064ZM35.9556 39.9975C26.1709 40.1187 18.4039 35.7772 8.86308 35.8377C7.27267 36.2658 5.37695 36.2658 4.03129 37.3054L0.728516 35.593L38.8295 34.4929H41.0305L35.9556 39.9975ZM149.706 39.9975H40.2366L41.6428 38.4063H153.866L149.706 39.9975Z" fill="#979797" fill-opacity="0.4"/>
</svg>
