<svg width="199" height="40" viewBox="0 0 199 40" fill="none" xmlns="http://www.w3.org/2000/svg">
<path fill-rule="evenodd" clip-rule="evenodd" d="M10.499 23.9488L1.7019 32.1543L26.4486 31.549L31.0836 26.9404H36.1388L37.5314 22.5297H31.1577L26.2221 17.2766L0.806641 16.4364L10.499 23.9488ZM120.994 13.467C113.082 13.467 107.586 18.8481 107.586 26.6959C107.586 34.2443 113.667 40 120.994 40C128.393 40 134.328 34.9925 134.328 26.5467C134.328 18.9984 128.759 13.467 120.994 13.467ZM121.434 36.9354C116.965 36.9354 115.06 32.8241 115.06 26.3224C115.06 20.6429 117.259 16.5317 121.069 16.5317C125.098 16.5317 127.369 20.9413 127.369 27.5944C127.369 33.4221 125.316 36.9354 121.434 36.9354ZM85.8755 13.3051C82.7982 13.3051 81.1865 14.8745 79.7949 17.4153L78.5494 15.248C77.8171 13.9771 77.2309 13.6035 75.6922 13.6035C73.0551 13.6035 70.9302 15.0237 70.9302 16.4438C70.9302 19.8069 74.3726 16.8925 74.3726 24.0673V31.7659C74.3726 35.5025 74.0064 36.2507 72.908 36.2507C71.8085 36.2507 71.8085 36.2507 68.5862 26.9827C66.1152 19.9635 63.6951 14.158 60.4537 7.47428C57.0113 0.374617 56.352 0 54.081 0C51.7371 0 49.9053 0.374617 43.3125 18.0121L41.6352 22.9435L40.0151 28.4018L38.5505 33.7078C37.8182 35.7248 35.6202 36.6221 35.6202 38.1185C35.6202 39.3132 36.6457 39.6868 38.6235 39.6868H42.6532C44.484 39.6868 45.2173 39.0899 45.2173 38.0412C45.2173 36.3237 43.1665 36.1724 43.1665 34.4549C43.1665 34.1014 43.8427 31.35 44.558 28.8494C45.0702 27.1298 45.2173 26.9806 47.7814 26.9806H57.9647C60.2357 26.9806 60.4558 27.0547 61.1151 29.0727C61.9162 31.5236 62.7056 34.1078 62.7426 34.3861L62.7998 34.8284C62.7998 35.9491 60.9691 36.8454 60.9691 38.1915C60.9691 39.3122 62.0675 39.6857 64.0453 39.6857H81.6278C83.1665 39.6857 84.558 39.5365 84.558 38.1174C84.558 36.3978 81.7749 36.9946 81.2616 34.8295L80.9685 29.896V26.3076C80.9685 22.4958 82.067 18.9836 83.6786 18.9836C84.2649 18.9836 85.0702 19.5063 86.3157 19.5063C88.6597 19.5063 90.0524 18.0862 90.0524 16.3676C90.0502 14.5009 88.2925 13.3051 85.8755 13.3051ZM56.2441 22.6122H48.3327C46.7211 22.6122 46.648 22.4609 46.648 22.2376C46.648 21.1921 51.3371 9.23305 52.1424 9.23305C53.0218 9.23305 58.2229 21.4895 58.2229 22.0122C58.2229 22.4609 58.0028 22.6122 56.2441 22.6122Z" fill="#979797" fill-opacity="0.4"/>
<path fill-rule="evenodd" clip-rule="evenodd" d="M99.5436 17.3502C97.9319 14.2115 97.1996 13.4644 95.807 13.4644C93.0238 13.4644 91.0449 15.3333 91.0449 16.6783C91.0449 19.8921 93.9752 17.1269 93.9752 23.9282V32.2988C93.9752 38.2037 91.4841 36.2608 91.4841 38.2037C91.4841 39.2492 92.4365 39.6238 93.9752 39.6238H100.935C103.06 39.6238 104.085 39.4006 104.085 38.0555C104.085 36.41 101.667 36.6354 101.008 35.1391C100.789 34.6163 100.715 34.0184 100.715 30.5813V25.5737C100.715 22.5832 101.743 18.8466 103.646 18.8466C104.158 18.8466 105.258 19.4445 106.724 19.4445C108.322 19.5058 109.664 18.236 109.725 16.6063C109.727 16.5798 109.727 16.5566 109.727 16.5301C109.727 14.3629 107.823 13.2422 105.771 13.2422C103.061 13.2401 101.155 14.7343 99.5436 17.3502ZM152.666 30.5717C155.962 39.1677 156.183 39.6164 159.699 39.6164C163.142 39.6164 164.901 37.6735 167.83 29.0775L168.869 25.8531L169.808 22.2012C171.495 15.6253 172.373 16.5957 172.373 15.6253C172.373 14.7279 171.786 14.5787 170.467 14.5787H165.998C164.314 14.5787 163.654 14.8031 163.654 15.7745C163.654 17.419 165.998 17.2698 165.998 19.7365C165.998 21.8287 163.214 33.7866 161.529 33.7866C159.845 33.7866 156.62 20.6329 156.62 18.9884C156.62 16.8952 158.307 17.1947 158.307 15.7745C158.307 14.729 157.208 14.5787 155.889 14.5787H150.321C148.783 14.5787 148.27 14.8772 148.27 15.7745C148.27 17.1195 150.467 17.7174 150.467 21.0816C150.467 26.3875 148.123 33.4893 146.951 33.4893C145.633 33.4893 142.189 21.9049 142.189 19.4371C142.189 16.747 144.02 17.7926 144.02 15.9248C144.02 14.8782 143.508 14.5798 141.529 14.5798H135.376C134.132 14.5798 133.398 14.8782 133.398 16.074C133.398 17.7122 134.396 16.1618 135.63 21.5683C136.397 24.9208 137.887 30.2077 138.695 32.4215C140.917 38.5021 142.327 39.6185 145.046 39.6185C147.611 39.6164 149.515 38.4947 152.666 30.5717ZM176.616 16.5619L178.564 22.5218C178.557 22.561 173.192 22.4805 173.07 22.5218C173.025 22.5366 171.938 26.8267 171.971 26.8563C172.018 26.8976 178.515 26.8891 178.564 26.9304L176.952 33.0586L198.789 23.5134L176.616 16.5619Z" fill="#979797" fill-opacity="0.4"/>
</svg>
