<svg width="158" height="40" viewBox="0 0 158 40" fill="none" xmlns="http://www.w3.org/2000/svg">
<g clip-path="url(#clip0_115_273)">
<path d="M0.117188 31.2821L14.8005 0L32.2949 0.00214095L29.3554 6.25156H19.5313L16.8294 12.0043H26.1154L23.1823 18.263L13.8885 18.2651L10.7199 25.0248L20.5768 25.0241L17.6437 31.2813L0.117188 31.2821ZM74.7049 10.3579C76.6338 7.85584 78.6849 7.5454 80.9236 7.55754L77.7193 14.2894C77.0485 14.2737 76.93 14.2944 76.2442 14.2944C74.854 14.2972 72.9671 15.4048 71.943 17.3267L65.3703 31.2792H58.6549L69.6201 7.91864H75.8767L74.7049 10.3579ZM102.825 5.31953L104.744 1.22962L111.473 1.22605L109.537 5.32453L102.825 5.31953ZM90.6356 31.2813L101.607 7.92007H108.313L97.3503 31.2821L90.6356 31.2813ZM110.265 7.91079L125.616 7.90937L123.163 13.1047L110.043 26.026H117.766L115.279 31.312L99.3628 31.3042L101.906 25.8733L114.889 13.1354L107.812 13.1404L110.265 7.91079ZM56.9058 16.456L57.8699 14.3986C58.3959 13.3673 58.7755 11.6039 57.1327 11.5782C55.2401 11.5533 54.2745 13.4473 53.6701 14.7618L52.8808 16.4517L56.9058 16.456ZM50.8918 20.6887L48.9721 24.775C48.3634 26.0667 48.4083 27.3384 49.857 27.3399C51.978 27.3434 52.489 25.7834 53.8371 23.1907H60.4319C56.9314 30.2772 54.3138 32.0357 47.6248 32.0821C42.0262 32.1206 40.4298 29.3103 43.0531 23.215L46.717 15.4583C49.543 9.45441 53.6986 7.56681 58.9132 7.54755C63.9245 7.53898 65.5473 11.5361 63.634 15.7131L61.3989 20.6872L50.8918 20.6887ZM133.925 16.456L134.883 14.3986C135.411 13.3673 135.79 11.6039 134.152 11.5782C132.259 11.5533 131.299 13.4473 130.694 14.7618L129.906 16.4517L133.925 16.456ZM127.918 20.6887L126.004 24.775C125.393 26.0667 125.435 27.3384 126.89 27.3399C129.001 27.3434 129.512 25.7834 130.861 23.1907H137.463C133.952 30.2772 131.332 32.0357 124.656 32.0821C119.047 32.1206 117.452 29.3103 120.071 23.215L123.75 15.4583C126.572 9.45441 130.726 7.56681 135.93 7.54755C140.951 7.53898 142.569 11.5361 140.66 15.7131L138.426 20.6872L127.918 20.6887ZM82.2003 21.8198C81.2875 23.9186 80.3484 25.7292 82.368 25.6692C83.6033 25.6264 84.6167 24.3318 85.8164 21.9333L88.4533 16.2719C89.6187 13.6899 89.6865 12.5738 88.2977 12.5809C86.9703 12.5995 85.9284 13.894 84.7123 16.3204L82.2003 21.8198ZM77.2933 30.6112C74.1996 30.5734 72.8936 27.8958 75.9873 20.9955L79.0246 14.5484C82.2959 8.38822 85.8685 7.47975 88.6381 7.49402C90.383 7.49973 91.8738 8.02212 91.9181 10.3579L93.047 7.9165L99.3029 7.91864L88.1179 31.7395C85.5594 37.2053 83.4378 39.9136 76.0636 39.9672C71.0024 40 68.6995 36.9028 70.7434 32.5709H76.9578C76.2071 34.7304 76.3655 35.3541 77.8735 35.382C79.5662 35.4105 80.4961 34.3679 81.2383 32.8692L83.4107 28.3697C81.4938 29.8626 79.3236 30.8289 77.2933 30.6105V30.6112ZM36.0893 10.208C37.5652 8.42034 39.8681 7.44407 41.9791 7.4562C45.8164 7.47761 46.7405 10.7233 45.2583 13.8976L37.2126 31.2792L30.575 31.2813L38.1653 14.8617C38.5857 13.7791 39.1152 12.2212 37.4239 12.2384C36.2285 12.2462 34.8861 13.6735 34.3209 14.8839L26.6221 31.2821H19.9067L30.8683 7.91864H37.1277L36.0893 10.208ZM151.4 10.3586C153.332 7.86084 154.793 7.86797 157.611 7.56039L154.409 14.2937C153.739 14.2751 153.619 14.2972 152.951 14.2972C151.548 14.3022 149.669 15.4112 148.623 17.3295L142.065 31.2813H135.346L146.312 7.92364H152.574L151.4 10.3586Z" fill="#979797" fill-opacity="0.4"/>
</g>
<defs>
<clipPath id="clip0_115_273">
<rect width="157.729" height="40" fill="white"/>
</clipPath>
</defs>
</svg>
