<svg width="172" height="40" viewBox="0 0 172 40" fill="none" xmlns="http://www.w3.org/2000/svg">
<path d="M40.9033 20C40.9033 31.05 31.9533 40 20.9033 40C9.85332 40 0.90332 31.05 0.90332 20C0.90332 8.95 9.85332 0 20.9033 0C31.9533 0 40.9033 8.95 40.9033 20Z" fill="#858585" fill-opacity="0.4"/>
<path d="M23.57 20H17.9033V14H23.57C25.22 14 26.57 15.35 26.57 17C26.57 18.65 25.22 20 23.57 20ZM23.57 10H13.9033V30H17.9033V24H23.57C27.4367 24 30.57 20.8667 30.57 17C30.57 13.1333 27.4367 10 23.57 10Z" fill="white" fill-opacity="0.6"/>
<path d="M61.9197 17.5487C61.9197 16.4487 61.0697 15.782 59.9697 15.782H57.0197V19.2987H59.9697C61.0697 19.2987 61.9197 18.632 61.9197 17.5487ZM54.2363 26.6654V13.332H60.3697C63.2197 13.332 64.7697 15.2487 64.7697 17.5487C64.7697 19.832 63.203 21.7487 60.3697 21.7487H57.0363V26.6654H54.2363Z" fill="#858585" fill-opacity="0.4"/>
<path d="M66.4531 26.6648V16.9482H68.9531V18.2315C69.6365 17.4148 70.8031 16.7148 71.9865 16.7148V19.1482C71.8031 19.1148 71.5865 19.0982 71.3031 19.0982C70.4698 19.0982 69.3698 19.5648 68.9698 20.1815V26.6815H66.4531V26.6648Z" fill="#858585" fill-opacity="0.4"/>
<path d="M80.3699 21.6815C80.3699 20.2148 79.5033 18.9315 77.9366 18.9315C76.3866 18.9315 75.5199 20.2148 75.5199 21.6815C75.5199 23.1815 76.3866 24.4482 77.9366 24.4482C79.5033 24.4482 80.3699 23.1648 80.3699 21.6815ZM72.9199 21.6815C72.9199 18.9982 74.8033 16.7148 77.9199 16.7148C81.0699 16.7148 82.9533 18.9982 82.9533 21.6815C82.9533 24.3648 81.0699 26.6648 77.9199 26.6648C74.8033 26.6648 72.9199 24.3648 72.9199 21.6815Z" fill="#858585" fill-opacity="0.4"/>
<path d="M91.3531 23.3654V20.0154C90.9364 19.382 90.0364 18.932 89.2197 18.932C87.7864 18.932 86.8031 20.0487 86.8031 21.682C86.8031 23.332 87.7864 24.4487 89.2197 24.4487C90.0364 24.4487 90.9364 23.9987 91.3531 23.3654ZM91.3531 26.6654V25.2154C90.6031 26.1654 89.5864 26.6654 88.4197 26.6654C86.0364 26.6654 84.2197 24.8654 84.2197 21.682C84.2197 18.5987 86.0031 16.7154 88.4197 16.7154C89.5364 16.7154 90.6031 17.182 91.3531 18.1654V13.332H93.8697V26.6654H91.3531Z" fill="#858585" fill-opacity="0.4"/>
<path d="M102.737 26.6659V25.2325C102.087 25.9325 100.954 26.6659 99.4036 26.6659C97.3203 26.6659 96.3369 25.5326 96.3369 23.6826V16.9492H98.8369V22.6992C98.8369 24.0159 99.5202 24.4492 100.587 24.4492C101.554 24.4492 102.32 23.9159 102.754 23.3659V16.9492H105.254V26.6659H102.737Z" fill="#858585" fill-opacity="0.4"/>
<path d="M107.104 21.6815C107.104 18.7815 109.22 16.7148 112.137 16.7148C114.087 16.7148 115.254 17.5648 115.887 18.4315L114.254 19.9648C113.804 19.2982 113.12 18.9482 112.254 18.9482C110.737 18.9482 109.687 20.0482 109.687 21.6982C109.687 23.3482 110.754 24.4648 112.254 24.4648C113.12 24.4648 113.804 24.0648 114.254 23.4315L115.887 24.9648C115.254 25.8315 114.087 26.6982 112.137 26.6982C109.22 26.6648 107.104 24.5982 107.104 21.6815Z" fill="#858585" fill-opacity="0.4"/>
<path d="M118.036 24.0516V19.1182H116.47V16.9349H118.036V14.3516H120.536V16.9516H122.453V19.1349H120.536V23.4016C120.536 24.0182 120.853 24.4682 121.403 24.4682C121.77 24.4682 122.136 24.3349 122.27 24.1682L122.803 26.0682C122.436 26.4016 121.77 26.6849 120.72 26.6849C118.953 26.6682 118.036 25.7682 118.036 24.0516Z" fill="#858585" fill-opacity="0.4"/>
<path d="M138.42 26.6654V20.9154H132.236V26.6654H129.453V13.332H132.236V18.482H138.42V13.332H141.236V26.6654H138.42Z" fill="#858585" fill-opacity="0.4"/>
<path d="M150.153 26.6659V25.2325C149.503 25.9325 148.37 26.6659 146.82 26.6659C144.736 26.6659 143.753 25.5326 143.753 23.6826V16.9492H146.253V22.6992C146.253 24.0159 146.936 24.4492 148.003 24.4492C148.97 24.4492 149.736 23.9159 150.17 23.3659V16.9492H152.67V26.6659H150.153Z" fill="#858585" fill-opacity="0.4"/>
<path d="M161.52 26.6648V20.6982C161.52 19.3815 160.837 18.9315 159.77 18.9315C158.787 18.9315 158.037 19.4815 157.604 20.0315V26.6648H155.104V16.9482H157.604V18.1648C158.22 17.4648 159.387 16.7148 160.92 16.7148C163.02 16.7148 164.02 17.8982 164.02 19.7315V26.6648H161.52Z" fill="#858585" fill-opacity="0.4"/>
<path d="M167.02 24.0516V19.1182H165.453V16.9349H167.02V14.3516H169.52V16.9516H171.436V19.1349H169.52V23.4016C169.52 24.0182 169.836 24.4682 170.386 24.4682C170.753 24.4682 171.12 24.3349 171.253 24.1682L171.786 26.0682C171.42 26.4016 170.753 26.6849 169.703 26.6849C167.936 26.6682 167.02 25.7682 167.02 24.0516Z" fill="#858585" fill-opacity="0.4"/>
</svg>
